<?xml version="1.0" encoding="UTF-8"?>
<svg width="349px" height="455px" viewBox="0 0 349 455" version="1.1" xmlns="http://www.w3.org/2000/svg" xmlns:xlink="http://www.w3.org/1999/xlink">
    <!-- Generator: Sketch 47 (45396) - http://www.bohemiancoding.com/sketch -->
    <title>PlaceholderBottle</title>
    <desc>Created with Sketch.</desc>
    <defs></defs>
    <g id="Icon" stroke="none" stroke-width="1" fill="none" fill-rule="evenodd">
        <g id="Placeholder" transform="translate(-50.000000, -94.000000)" fill="#F0F0EA">
            <g id="PlaceholderBottle" transform="translate(50.000000, 94.000000)">
                <path d="M224.52,195.719 L223.582,194.096 C212.751,175.366 206.618,154.293 205.705,132.677 L201.703,37.923 L202.821,37.923 C204.536,37.923 205.926,36.532 205.926,34.818 L205.926,23.496 C205.926,19.022 202.298,15.394 197.824,15.394 L200.884,15.394 C202.528,15.394 203.861,14.062 203.861,12.418 L203.861,8.282 C203.861,3.708 200.153,0 195.578,0 L153.57,0 C148.995,0 145.287,3.708 145.287,8.282 L145.287,12.418 C145.287,14.062 146.62,15.394 148.263,15.394 L151.324,15.394 C146.849,15.394 143.221,19.022 143.221,23.496 L143.221,34.818 C143.221,36.532 144.612,37.923 146.327,37.923 L147.445,37.923 L143.443,132.677 C142.53,154.293 136.396,175.366 125.566,194.096 L124.628,195.719 C118.976,205.494 116,216.586 116,227.877 L116,438.517 C116,445.953 121.725,452.135 129.138,452.705 L143.409,453.802 C164.155,455.399 184.993,455.399 205.739,453.802 L220.009,452.705 C227.422,452.135 233.148,445.953 233.148,438.517 L233.148,227.877 C233.148,216.586 230.171,205.494 224.52,195.719" id="Fill-1"></path>
            </g>
        </g>
    </g>
</svg>